<svg width="16" height="16" viewBox="0 0 16 16" fill="none" xmlns="http://www.w3.org/2000/svg">
<path d="M14.7162 10.5022C13.7366 10.5022 12.7747 10.349 11.8633 10.0478C11.4089 9.89279 10.8915 10.013 10.595 10.3151L8.796 11.6732C6.70963 10.5595 5.42446 9.27475 4.32596 7.20404L5.64408 5.45188C5.98654 5.10988 6.10938 4.61029 5.96221 4.14154C5.65971 3.22529 5.50604 2.26392 5.50604 1.28392C5.50608 0.575958 4.93013 0 4.22221 0H1.28383C0.575958 0 0 0.575958 0 1.28383C0 9.39846 6.60158 16 14.7162 16C15.4241 16 16 15.424 16 14.7161V11.786C16 11.0781 15.424 10.5022 14.7162 10.5022ZM15.1111 14.7162C15.1111 14.934 14.934 15.1111 14.7162 15.1111C7.09158 15.1111 0.888917 8.90842 0.888917 1.28387C0.888917 1.066 1.066 0.888917 1.28387 0.888917H4.22225C4.44012 0.888917 4.61721 1.066 4.61721 1.28387C4.61721 2.35896 4.78604 3.41408 5.11633 4.41367C5.16233 4.56125 5.125 4.714 4.97571 4.86942L3.44792 6.89279C3.3455 7.02863 3.32942 7.2105 3.40625 7.36196C4.65321 9.81292 6.16842 11.3281 8.63671 12.5929C8.78688 12.6714 8.97092 12.655 9.10721 12.5521L11.1771 10.984C11.2817 10.8794 11.4384 10.842 11.5799 10.8902C12.5864 11.2227 13.6415 11.3911 14.7162 11.3911C14.934 11.3911 15.1111 11.5682 15.1111 11.786V14.7162Z" fill="black"/>
</svg>
